<?xml version="1.0" encoding="UTF-8" standalone="no"?>
<!-- Created with Inkscape (http://www.inkscape.org/) -->

<svg
   xmlns:dc="http://purl.org/dc/elements/1.1/"
   xmlns:cc="http://creativecommons.org/ns#"
   xmlns:rdf="http://www.w3.org/1999/02/22-rdf-syntax-ns#"
   xmlns:svg="http://www.w3.org/2000/svg"
   xmlns="http://www.w3.org/2000/svg"
   xmlns:sodipodi="http://sodipodi.sourceforge.net/DTD/sodipodi-0.dtd"
   xmlns:inkscape="http://www.inkscape.org/namespaces/inkscape"
   width="176.89284mm"
   height="176.89284mm"
   viewBox="0 0 176.89284 176.89284"
   version="1.1"
   id="svg8"
   inkscape:version="0.92.4 (5da689c313, 2019-01-14)"
   sodipodi:docname="Linux_for_PHP_LOGO-vectorColorNew_Background_White_export.svg">
  <defs
     id="defs2" />
  <sodipodi:namedview
     id="base"
     pagecolor="#ffffff"
     bordercolor="#666666"
     borderopacity="1.0"
     inkscape:pageopacity="0.0"
     inkscape:pageshadow="2"
     inkscape:zoom="0.35"
     inkscape:cx="-83.528568"
     inkscape:cy="550.0442"
     inkscape:document-units="mm"
     inkscape:current-layer="layer1"
     showgrid="false"
     inkscape:window-width="2880"
     inkscape:window-height="1675"
     inkscape:window-x="-13"
     inkscape:window-y="-13"
     inkscape:window-maximized="1"
     inkscape:pagecheckerboard="true"
     fit-margin-top="0"
     fit-margin-left="0"
     fit-margin-right="0"
     fit-margin-bottom="0" />
  <metadata
     id="metadata5">
    <rdf:RDF>
      <cc:Work
         rdf:about="">
        <dc:format>image/svg+xml</dc:format>
        <dc:type
           rdf:resource="http://purl.org/dc/dcmitype/StillImage" />
        <dc:title></dc:title>
      </cc:Work>
    </rdf:RDF>
  </metadata>
  <g
     inkscape:label="Layer 1"
     inkscape:groupmode="layer"
     id="layer1"
     transform="translate(144.58723,-122.00874)">
    <circle
       id="path3727"
       cx="-56.140812"
       cy="210.45515"
       r="88.446419"
       style="fill:#ffffff;fill-opacity:1;stroke-width:0.20500825" />
    <path
       style="fill:#162840;fill-opacity:1;stroke-width:0.28222221"
       d="m -39.376352,259.32738 c -3.489,-2.26875 -7.2336,-4.73421 -8.32132,-5.47882 -2.27368,-1.55647 -2.6319,-1.62456 -12.69788,-2.41351 -7.48005,-0.58627 -12.79182,-1.36046 -15.38111,-2.2418 -2.7683,-0.94227 -3.06453,-1.00823 -3.24154,-0.72183 -0.18351,0.29694 -3.40421,1.35404 -4.69901,1.54231 -0.5222,0.0759 -2.15304,0.34103 -3.624086,0.5891 -2.85518,0.48149 -5.03059,0.34047 -9.46092,-0.61328 -1.08655,-0.23391 -2.25993,-0.48145 -2.6075,-0.55009 -4.818842,-0.95164 -14.004642,-6.29877 -22.376632,-13.02562 -5.66299,-4.55017 -11.62588,-11.20115 -13.60089,-15.17036 -0.6001,-1.20604 -2.38086,-8.05151 -2.78982,-10.72444 -0.18999,-1.24178 -0.35241,-4.16278 -0.36093,-6.49111 -0.0144,-3.93146 0.05,-4.47162 0.90352,-7.57495 2.39647,-8.71381 5.1138,-13.4847 11.50658,-20.20241 2.76619,-2.9068 4.86489,-4.52418 9.34466,-7.20156 6.48279,-3.87449 9.25435,-4.56656 17.158792,-4.28465 5.60896,0.20004 8.25358,0.6007 11.43,1.73163 6.087696,2.16745 9.041966,4.69848 11.728946,10.04858 1.55488,3.09596 1.91466,5.12594 1.51966,8.57447 -0.52416,4.57622 -0.81588,5.53066 -3.11879,10.20385 -2.24437,4.55443 -2.71776,6.03035 -3.33728,10.4049 -0.304,2.14666 -0.84707,2.99353 -1.5471,2.41256 -0.45056,-0.37393 -5.893906,-11.22855 -6.237366,-12.43798 -0.11021,-0.38805 -0.49553,-1.02305 -0.85627,-1.41111 -1.87273,-2.01452 -1.61326,-4.58331 0.86945,-8.60778 2.02997,-3.29057 2.74824,-7.84155 1.58196,-10.02329 -0.47122,-0.8815 -0.66301,-0.99236 -1.85127,-1.07008 -2.13005,-0.13932 -4.8238,1.36751 -8.37944,4.68731 -1.6124,1.50544 -3.503082,3.19724 -4.201502,3.75953 -1.70195,1.37022 -5.48534,3.47854 -7.31784,4.07792 -2.13181,0.69728 -5.3367,2.8878 -6.82064,4.66186 -1.55584,1.86 -3.14454,4.10307 -3.7896,5.35048 -0.57146,1.10509 -1.23928,4.6389 -1.25305,6.6307 -0.021,3.03889 2.32462,9.01919 5.42278,13.82556 0.69724,1.08168 1.59856,2.62315 2.00294,3.4255 0.7266,1.4417 0.72895,1.46655 0.20067,2.11667 -0.4755,0.58516 -0.74757,0.65156 -2.46262,0.60098 -1.06043,-0.0313 -2.55714,-0.24887 -3.32601,-0.48354 -0.76886,-0.23467 -1.4459,-0.37871 -1.50453,-0.32008 -0.35222,0.35222 2.92836,4.34035 5.7247,6.95939 5.01297,4.69514 12.85654,10.40429 17.497752,12.73622 4.2386,2.12964 9.16546,4.04673 11.510356,4.47879 1.72388,0.31764 4.4352,0.15634 4.4352,-0.26385 0,-0.10928 -0.66675,-0.43242 -1.48167,-0.71808 -0.81491,-0.28567 -2.56116,-1.1219 -3.880546,-1.85829 -1.31939,-0.7364 -3.16089,-1.76016 -4.09222,-2.27503 -3.34137,-1.8472 -8.46387,-5.94622 -10.040162,-8.03411 -1.35617,-1.79634 -4.06563,-6.56988 -4.91368,-8.65694 -0.36373,-0.89516 -0.81208,-2.92643 -1.01823,-4.61315 -0.32231,-2.63727 -0.30861,-3.48182 0.10974,-6.76095 1.00379,-7.86802 4.09055,-15.28019 7.678662,-18.43857 1.63858,-1.44234 4.75781,-3.01039 5.33729,-2.68307 1.22656,0.69283 3.86968,5.13174 5.68006,9.53923 2.056346,5.00634 2.741016,6.10222 4.789796,7.66658 1.4588,1.11388 2.36402,1.11774 3.08776,0.0132 0.62069,-0.94729 1.24159,-4.28393 1.25284,-6.73259 0.0127,-2.7647 0.59702,-4.30597 2.78179,-7.33758 2.24425,-3.11414 2.50573,-3.67586 3.47744,-7.47036 0.66662,-2.60316 0.82669,-3.82509 0.82669,-6.31102 v -3.08281 l 0.91722,-0.69217 c 1.87902,-1.41798 2.90849,-1.66686 6.985,-1.6887 5.3221,-0.0285 8.81323,0.76414 13.91698,3.15976 0.96049,0.45084 2.25435,1.04761 2.87524,1.32616 0.62089,0.27855 1.50725,0.76965 1.9697,1.09134 0.46245,0.32168 1.04754,0.71188 1.3002,0.8671 6.69497,4.113 9.86432,7.51903 12.83574,13.79429 1.35207,2.8554 2.04984,5.64597 2.93726,11.74682 0.6823,4.69076 1.16562,6.25146 2.18401,7.05253 1.57237,1.23682 5.73154,0.28268 7.09119,-1.62677 1.40579,-1.97426 3.14145,-6.14823 3.5471,-8.5302 0.93117,-5.46779 1.05744,-8.00394 0.72077,-14.4775 -0.30525,-5.86951 -0.37337,-6.36067 -1.10316,-7.95415 -0.65996,-1.44102 -1.00866,-1.83292 -2.30142,-2.58653 -3.49059,-2.03482 -6.22284,-1.88292 -11.15986,0.62042 -3.3735,1.71054 -4.33375,1.83188 -4.33375,0.54762 0,-0.36843 -0.127,-0.74837 -0.28223,-0.8443 -0.42697,-0.26389 -0.33812,-3.08945 0.15726,-5.00119 0.80534,-3.10791 3.6416,-6.74382 6.33544,-8.12166 2.275,-1.1636 5.56704,-1.70334 8.43056,-1.38221 2.88287,0.3233 5.09279,1.43724 7.196701,3.6276 0.90087,0.93788 1.82527,1.70523 2.0542197,1.70523 0.7696,0 1.63719,-0.62533 3.90694,-2.81599 2.8474401,-2.74823 4.3119501,-3.36183 8.78518,-3.6808 6.8859195,-0.49101 10.7048993,1.11361 15.5000093,6.51266 1.41561,1.5939 2.51086,4.64554 2.209,6.15484 -0.14806,0.74027 -0.30683,0.88485 -0.9717,0.88485 -0.43711,0 -0.8621,-0.10899 -0.94442,-0.2422 -0.13529,-0.21889 -1.95487,-0.55357 -5.5556,-1.02185 -1.43868,-0.1871 -3.4864698,0.17237 -5.1658496,0.90682 -2.3047598,1.00795 -5.7390397,5.40878 -6.6255897,8.49032 -0.88058996,3.06082 -1.84399992,11.95968 -2.16948992,20.03921 -0.17740998,4.40372 -0.86083998,12.57065 -1.27949998,15.28992 -0.37955,2.46529 -2.22598,7.57696 -4.2306601,11.71222 -1.7802,3.6722 -4.1665997,6.72765 -6.6812207,8.55435 -2.9691,2.15685 -9.92252,4.86033 -14.01156,5.44767 -1.10045,0.15807 -3.08033,0.35126 -4.39972,0.42932 -1.31938,0.078 -2.54798,0.18899 -2.7302,0.24653 -0.21806,0.0688 -0.009,0.76162 0.6129,2.0267 1.58372,3.22393 1.90651,4.49438 2.03007,7.98988 0.11883,3.36168 -0.14793,4.55835 -1.05509,4.73305 -0.23243,0.0448 -3.27724,-1.77486 -6.76625,-4.0436 z"
       id="path4496"
       inkscape:connector-curvature="0" />
  </g>
</svg>
